# xmcd
#
# Track frame offsets:
#	150
#	12877
#	27341
#	38857
#	55870
#	68005
#	83204
#	96074
#	107358
#	120933
#	132595
#	147595
#	158911
#	175549
#	189701
#	206165
#	216651
#	231912
#	241049
#	256244
#	265506
#	280386
#
# Disc length: 3896 seconds
#
# Revision: 0
# Processed by: cddbd v1.5.2PL0 Copyright (c) Steve Scherf et al.
# Submitted via: EasyCDDAExtractor 16.0.6.1
#
DISCID=360f3616
DTITLE=Varios - C-080 Transit-Music Country Internet Nº 4
DYEAR=1900
DGENRE=
TTITLE0=Pinto Bennet - You Cared Enought To Lie
TTITLE1=Pinto Bennet - Carolina Mornin's
TTITLE2=Sisco Kids - Come Out Swingin'
TTITLE3=Freakwater - Hellbound
TTITLE4=Lazy Circles - Goodtime Country Music
TTITLE5=Tom V. Cunningham - Heartbreak Train
TTITLE6=Tom V. Cunningham - Honkey Tonk In Texas
TTITLE7=Hot Rod Daddy - Hot Rod Daddy
TTITLE8=Allana Myrol - I'ts Too Late
TTITLE9=Lory Lynn - Jukebox Jenny
TTITLE10=Allana Myrol - Long And Restless Nights
TTITLE11=Cody Young - Mrs. Someone Else
TTITLE12=Cass and The Vagabonds Dogs - My Baby Doll
TTITLE13=Lory Lynn - Pure Gold
TTITLE14=Tom V. Cunningham - She Had The Nicest Pair Of B.B.
TTITLE15=Desconocido - Somethings Gonna Happen
TTITLE16=Desconocido - Stereo I'm A Romantic
TTITLE17=Dorene - Till The River Dries
TTITLE18=Tom V. Cunningham - Too Lazy To Work
TTITLE19=Desconocido - Up All Night
TTITLE20=Pinto Bennet - Valuable Time
TTITLE21=Dorene - Beside Every Good Man
EXTD=
EXTT0=
EXTT1=
EXTT2=
EXTT3=
EXTT4=
EXTT5=
EXTT6=
EXTT7=
EXTT8=
EXTT9=
EXTT10=
EXTT11=
EXTT12=
EXTT13=
EXTT14=
EXTT15=
EXTT16=
EXTT17=
EXTT18=
EXTT19=
EXTT20=
EXTT21=
PLAYORDER=
